<svg xmlns="http://www.w3.org/2000/svg" xmlns:xlink="http://www.w3.org/1999/xlink" width="500" zoomAndPan="magnify" viewBox="0 0 375 374.999991" height="500" preserveAspectRatio="xMidYMid meet" version="1.0"><defs><filter x="0%" y="0%" width="100%" height="100%" id="2b816865f9"><feColorMatrix values="0 0 0 0 1 0 0 0 0 1 0 0 0 0 1 0 0 0 1 0" color-interpolation-filters="sRGB"/></filter><clipPath id="590ad73061"><path d="M 176.6875 138.742188 L 245 138.742188 L 245 208.941406 L 176.6875 208.941406 Z M 176.6875 138.742188 " clip-rule="nonzero"/></clipPath><clipPath id="e699b303ab"><path d="M 106.644531 124.199219 L 106.644531 153.742188 C 106.644531 184.394531 131.492188 209.242188 162.144531 209.242188 L 191.6875 209.242188 C 222.339844 209.242188 247.1875 184.394531 247.1875 153.742188 L 247.1875 124.199219 C 247.1875 93.546875 222.339844 68.699219 191.6875 68.699219 L 162.144531 68.699219 C 131.492188 68.699219 106.644531 93.546875 106.644531 124.199219 Z M 106.644531 124.199219 " clip-rule="nonzero"/></clipPath><clipPath id="ee710d1be2"><path d="M 108 68.699219 L 177 68.699219 L 177 139 L 108 139 Z M 108 68.699219 " clip-rule="nonzero"/></clipPath><clipPath id="001d89b508"><path d="M 106.644531 124.199219 L 106.644531 153.742188 C 106.644531 184.394531 131.492188 209.242188 162.144531 209.242188 L 191.6875 209.242188 C 222.339844 209.242188 247.1875 184.394531 247.1875 153.742188 L 247.1875 124.199219 C 247.1875 93.546875 222.339844 68.699219 191.6875 68.699219 L 162.144531 68.699219 C 131.492188 68.699219 106.644531 93.546875 106.644531 124.199219 Z M 106.644531 124.199219 " clip-rule="nonzero"/></clipPath><clipPath id="c0a8742ef6"><path d="M 176.6875 70.710938 L 246.886719 70.710938 L 246.886719 139 L 176.6875 139 Z M 176.6875 70.710938 " clip-rule="nonzero"/></clipPath><clipPath id="f3531fa15f"><path d="M 106.644531 124.199219 L 106.644531 153.742188 C 106.644531 184.394531 131.492188 209.242188 162.144531 209.242188 L 191.6875 209.242188 C 222.339844 209.242188 247.1875 184.394531 247.1875 153.742188 L 247.1875 124.199219 C 247.1875 93.546875 222.339844 68.699219 191.6875 68.699219 L 162.144531 68.699219 C 131.492188 68.699219 106.644531 93.546875 106.644531 124.199219 Z M 106.644531 124.199219 " clip-rule="nonzero"/></clipPath><clipPath id="43df6914a4"><path d="M 106.644531 138 L 177 138 L 177 207 L 106.644531 207 Z M 106.644531 138 " clip-rule="nonzero"/></clipPath><clipPath id="ebf53f1cd6"><path d="M 106.644531 124.199219 L 106.644531 153.742188 C 106.644531 184.394531 131.492188 209.242188 162.144531 209.242188 L 191.6875 209.242188 C 222.339844 209.242188 247.1875 184.394531 247.1875 153.742188 L 247.1875 124.199219 C 247.1875 93.546875 222.339844 68.699219 191.6875 68.699219 L 162.144531 68.699219 C 131.492188 68.699219 106.644531 93.546875 106.644531 124.199219 Z M 106.644531 124.199219 " clip-rule="nonzero"/></clipPath><mask id="6855f4e10e"><g filter="url(#2b816865f9)"><rect x="-37.5" width="450" fill="#000000" y="-37.499999" height="449.999989" fill-opacity="0.94"/></g></mask><clipPath id="f839be4771"><path d="M 6.570312 0.679688 L 13.601562 0.679688 L 13.601562 9.082031 L 6.570312 9.082031 Z M 0.710938 9.082031 L 19.460938 9.082031 L 19.460938 19.164062 L 0.710938 19.164062 Z M 6.570312 19.164062 L 13.601562 19.164062 L 13.601562 27.566406 L 6.570312 27.566406 Z M 6.570312 19.164062 " clip-rule="nonzero"/></clipPath><clipPath id="fada8ed447"><rect x="0" width="20" y="0" height="28"/></clipPath><mask id="74868293a5"><g filter="url(#2b816865f9)"><rect x="-37.5" width="450" fill="#000000" y="-37.499999" height="449.999989" fill-opacity="0.94"/></g></mask><clipPath id="ff986a31cb"><path d="M 6.761719 0.679688 L 14.785156 0.679688 L 14.785156 9.082031 L 6.761719 9.082031 Z M 0.0703125 9.082031 L 21.476562 9.082031 L 21.476562 19.164062 L 0.0703125 19.164062 Z M 6.761719 19.164062 L 14.785156 19.164062 L 14.785156 27.566406 L 6.761719 27.566406 Z M 6.761719 19.164062 " clip-rule="nonzero"/></clipPath><clipPath id="2b6862ec1a"><rect x="0" width="22" y="0" height="28"/></clipPath><clipPath id="b83a92b939"><path d="M 106.644531 232.679688 L 127.8125 232.679688 L 127.8125 257.128906 L 106.644531 257.128906 Z M 106.644531 232.679688 " clip-rule="nonzero"/></clipPath><clipPath id="a5f6dac0ba"><path d="M 113.613281 252.566406 L 120.59375 252.566406 L 121.949219 257.046875 L 127.8125 257.046875 L 120.214844 232.679688 L 114.257812 232.679688 L 106.644531 257.035156 L 112.296875 257.035156 Z M 117.117188 240.746094 L 118.996094 247.199219 L 115.207031 247.199219 Z M 117.117188 240.746094 " clip-rule="nonzero"/></clipPath><clipPath id="20777f5919"><path d="M 170.359375 232.679688 L 186.171875 232.679688 L 186.171875 256.144531 L 170.359375 256.144531 Z M 170.359375 232.679688 " clip-rule="nonzero"/></clipPath><clipPath id="6eefaf0ee6"><path d="M 186.171875 248.199219 L 186.171875 232.679688 L 180.785156 232.679688 L 180.785156 248.058594 C 180.785156 249.113281 180.558594 249.894531 180.117188 250.402344 C 179.679688 250.886719 179.070312 251.113281 178.246094 251.113281 C 177.417969 251.113281 176.816406 250.878906 176.390625 250.402344 C 175.945312 249.894531 175.730469 249.113281 175.730469 248.058594 L 175.730469 232.679688 L 170.359375 232.679688 L 170.359375 248.199219 C 170.359375 249.441406 170.542969 250.566406 170.898438 251.53125 C 171.265625 252.523438 171.792969 253.359375 172.492188 254.039062 C 173.179688 254.707031 174.023438 255.222656 175.007812 255.5625 C 175.964844 255.890625 177.050781 256.066406 178.253906 256.066406 C 179.445312 256.066406 180.542969 255.902344 181.5 255.570312 C 182.484375 255.230469 183.335938 254.71875 184.03125 254.046875 C 184.730469 253.378906 185.269531 252.53125 185.632812 251.550781 C 185.992188 250.566406 186.171875 249.441406 186.171875 248.199219 Z M 186.171875 248.199219 " clip-rule="nonzero"/></clipPath><clipPath id="c6f8e6add2"><path d="M 231.375 232.679688 L 247.1875 232.679688 L 247.1875 256.144531 L 231.375 256.144531 Z M 231.375 232.679688 " clip-rule="nonzero"/></clipPath><clipPath id="0a17fd7e1b"><path d="M 247.1875 248.199219 L 247.1875 232.679688 L 241.800781 232.679688 L 241.800781 248.058594 C 241.800781 249.113281 241.574219 249.894531 241.132812 250.402344 C 240.695312 250.886719 240.085938 251.113281 239.261719 251.113281 C 238.433594 251.113281 237.832031 250.878906 237.40625 250.402344 C 236.960938 249.894531 236.746094 249.113281 236.746094 248.058594 L 236.746094 232.679688 L 231.375 232.679688 L 231.375 248.199219 C 231.375 249.441406 231.558594 250.566406 231.914062 251.53125 C 232.28125 252.523438 232.808594 253.359375 233.507812 254.039062 C 234.195312 254.707031 235.039062 255.222656 236.023438 255.5625 C 236.980469 255.890625 238.066406 256.066406 239.269531 256.066406 C 240.460938 256.066406 241.558594 255.902344 242.515625 255.570312 C 243.5 255.230469 244.351562 254.71875 245.046875 254.046875 C 245.742188 253.378906 246.285156 252.53125 246.648438 251.550781 C 247.007812 250.566406 247.1875 249.441406 247.1875 248.199219 Z M 247.1875 248.199219 " clip-rule="nonzero"/></clipPath></defs><g clip-path="url(#590ad73061)"><g clip-path="url(#e699b303ab)"><path fill="#e71f69" d="M 230.671875 138.820312 C 225.941406 148.011719 216.363281 154.316406 205.332031 154.316406 L 192.261719 154.316406 L 192.261719 195.875 L 189.757812 195.875 C 185.078125 195.875 180.664062 194.730469 176.765625 192.726562 L 176.765625 206.867188 C 180.855469 208.210938 185.222656 208.941406 189.757812 208.941406 L 205.332031 208.941406 L 205.332031 167.386719 C 223.746094 167.386719 239.359375 155.40625 244.8125 138.820312 L 230.671875 138.820312 " fill-opacity="1" fill-rule="nonzero"/></g></g><g clip-path="url(#ee710d1be2)"><g clip-path="url(#001d89b508)"><path fill="#e71f69" d="M 148.203125 123.324219 L 161.269531 123.324219 L 161.269531 81.769531 L 163.777344 81.769531 C 168.453125 81.769531 172.867188 82.910156 176.765625 84.917969 L 176.765625 70.773438 C 172.679688 69.429688 168.3125 68.699219 163.777344 68.699219 L 148.203125 68.699219 L 148.203125 110.253906 C 129.789062 110.253906 114.171875 122.230469 108.71875 138.820312 L 122.863281 138.820312 C 127.59375 129.628906 137.171875 123.324219 148.203125 123.324219 " fill-opacity="1" fill-rule="nonzero"/></g></g><g clip-path="url(#c0a8742ef6)"><g clip-path="url(#f3531fa15f)"><path fill="#2ba8e0" d="M 192.261719 110.253906 L 192.261719 123.324219 L 233.816406 123.324219 L 233.816406 125.828125 C 233.816406 130.507812 232.679688 134.921875 230.671875 138.820312 L 244.8125 138.820312 C 246.160156 134.730469 246.886719 130.367188 246.886719 125.828125 L 246.886719 110.253906 L 205.332031 110.253906 C 205.332031 91.839844 193.355469 76.226562 176.765625 70.773438 L 176.765625 84.917969 C 185.957031 89.648438 192.261719 99.226562 192.261719 110.253906 " fill-opacity="1" fill-rule="nonzero"/></g></g><g clip-path="url(#43df6914a4)"><g clip-path="url(#ebf53f1cd6)"><path fill="#2ba8e0" d="M 161.269531 167.386719 L 161.269531 154.316406 L 119.714844 154.316406 L 119.714844 151.8125 C 119.714844 147.132812 120.855469 142.71875 122.863281 138.820312 L 108.71875 138.820312 C 107.375 142.90625 106.644531 147.273438 106.644531 151.8125 L 106.644531 167.386719 L 148.203125 167.386719 C 148.203125 185.800781 160.179688 201.414062 176.765625 206.867188 L 176.765625 192.726562 C 167.574219 187.992188 161.269531 178.414062 161.269531 167.386719 " fill-opacity="1" fill-rule="nonzero"/></g></g><g mask="url(#6855f4e10e)"><g transform="matrix(1, 0, 0, 1, 139, 232)"><g clip-path="url(#fada8ed447)"><g clip-path="url(#f839be4771)"><path fill="#e71f69" d="M 0.710938 0.679688 L 19.460938 0.679688 L 19.460938 27.566406 L 0.710938 27.566406 Z M 0.710938 0.679688 " fill-opacity="1" fill-rule="nonzero"/></g></g></g></g><g mask="url(#74868293a5)"><g transform="matrix(1, 0, 0, 1, 198, 232)"><g clip-path="url(#2b6862ec1a)"><g clip-path="url(#ff986a31cb)"><path fill="#e71f69" d="M 0.0703125 0.679688 L 21.476562 0.679688 L 21.476562 27.566406 L 0.0703125 27.566406 Z M 0.0703125 0.679688 " fill-opacity="1" fill-rule="nonzero"/></g></g></g></g><g clip-path="url(#b83a92b939)"><g clip-path="url(#a5f6dac0ba)"><path fill="#e71f69" d="M 106.644531 232.679688 L 127.8125 232.679688 L 127.8125 257.035156 L 106.644531 257.035156 Z M 106.644531 232.679688 " fill-opacity="1" fill-rule="nonzero"/></g></g><g clip-path="url(#20777f5919)"><g clip-path="url(#6eefaf0ee6)"><path fill="#2ba8e0" d="M 170.359375 232.679688 L 186.171875 232.679688 L 186.171875 256.058594 L 170.359375 256.058594 Z M 170.359375 232.679688 " fill-opacity="1" fill-rule="nonzero"/></g></g><g clip-path="url(#c6f8e6add2)"><g clip-path="url(#0a17fd7e1b)"><path fill="#2ba8e0" d="M 231.375 232.679688 L 247.1875 232.679688 L 247.1875 256.058594 L 231.375 256.058594 Z M 231.375 232.679688 " fill-opacity="1" fill-rule="nonzero"/></g></g></svg>